<svg width="512" height="512" viewBox="0 0 512 512" fill="none" xmlns="http://www.w3.org/2000/svg">
<path d="M161.833 490.672C157.612 490.669 153.434 489.833 149.537 488.211C145.64 486.59 142.102 484.216 139.125 481.224L117.469 459.578C113.933 456.035 111.269 451.718 109.688 446.969L98.5207 413.479L65.0047 402.307C60.2665 400.724 55.9607 398.062 52.4267 394.531L30.7707 372.875C26.59 368.693 23.6421 363.439 22.2506 357.692C20.859 351.944 21.0777 345.924 22.8824 340.293C24.6872 334.661 28.0083 329.636 32.4814 325.768C36.9545 321.899 42.4067 319.338 48.2397 318.365L112.813 307.605L184.12 236.293L56.8997 148.219C52.3027 145.037 48.6138 140.712 46.1964 135.67C43.779 130.629 42.7163 125.045 43.1132 119.468C43.51 113.891 45.3526 108.514 48.4595 103.865C51.5664 99.2171 55.8304 95.4582 60.8317 92.9589L85.6817 80.5309C94.9723 75.8949 105.24 73.5569 115.622 73.7135C126.004 73.8702 136.196 76.5168 145.343 81.4309L271.208 149.207L351.198 69.2169C366.228 54.205 386.038 44.9264 407.193 42.9899C424.75 41.3899 441.099 47.2899 452.907 59.0899C458.728 64.8973 463.198 71.9169 465.997 79.6488C468.796 87.3807 469.855 95.6347 469.1 103.823C467.306 125.321 457.986 145.497 442.781 160.8L362.791 240.79L430.562 366.649C435.481 375.795 438.13 385.989 438.287 396.373C438.444 406.756 436.103 417.026 431.462 426.316L419.04 451.17C416.54 456.171 412.78 460.434 408.131 463.54C403.482 466.647 398.105 468.488 392.528 468.884C386.951 469.28 381.367 468.216 376.326 465.798C371.285 463.379 366.961 459.69 363.78 455.092L275.708 327.88L204.4 399.188L193.64 463.756C192.377 471.278 188.49 478.109 182.668 483.037C176.846 487.964 169.467 490.67 161.84 490.673L161.833 490.672ZM149.39 431.156L154.895 436.661L163.437 385.432C164.165 381.045 166.249 376.997 169.395 373.854L263.614 279.635C265.823 277.426 268.491 275.729 271.429 274.664C274.367 273.599 277.503 273.193 280.615 273.474C283.727 273.754 286.739 274.715 289.439 276.289C292.139 277.862 294.46 280.009 296.239 282.578L388.792 416.26L393.302 407.234C394.885 404.064 395.684 400.56 395.63 397.017C395.577 393.474 394.673 389.996 392.995 386.875L317.7 247.047C315.524 243.007 314.708 238.374 315.375 233.834C316.042 229.294 318.154 225.091 321.4 221.847L412.614 130.633C420.572 122.661 425.491 112.157 426.52 100.94C427.103 94.5129 424.395 90.9189 422.734 89.2629C421.351 87.8631 419.674 86.789 417.824 86.1187C415.975 85.4484 413.999 85.1988 412.041 85.3879C400.481 86.2743 389.61 91.2335 381.364 99.3829L290.151 190.6C286.909 193.848 282.705 195.962 278.164 196.629C273.624 197.295 268.99 196.479 264.951 194.3L125.12 119C121.999 117.325 118.522 116.423 114.98 116.37C111.439 116.316 107.936 117.113 104.766 118.693L95.7397 123.209L229.422 215.76C231.991 217.539 234.138 219.86 235.711 222.56C237.284 225.259 238.245 228.272 238.526 231.384C238.807 234.496 238.4 237.632 237.336 240.569C236.271 243.507 234.574 246.175 232.365 248.385L138.146 342.6C135.003 345.746 130.954 347.829 126.568 348.558L75.3387 357.1L80.8437 362.605L122.136 376.371C125.276 377.42 128.129 379.185 130.471 381.526C132.812 383.867 134.577 386.721 135.626 389.861L149.39 431.156ZM150.161 433.479L150.171 433.495C150.167 433.49 150.167 433.484 150.161 433.479V433.479ZM380.9 432.052C380.894 432.066 380.887 432.08 380.879 432.094V432.089L380.9 432.052ZM78.4787 361.823L78.4997 361.828C78.4931 361.825 78.486 361.823 78.4787 361.823V361.823Z" fill="#f554cf" id="id_101"></path>
</svg>